<?xml version="1.0" encoding="UTF-8"?>
<svg width="124px" height="143px" viewBox="0 0 124 143" version="1.1" xmlns="http://www.w3.org/2000/svg" xmlns:xlink="http://www.w3.org/1999/xlink">
    <!-- Generator: Sketch 40.3 (33839) - http://www.bohemiancoding.com/sketch -->
    <title>Logo</title>
    <desc>Created with Sketch.</desc>
    <defs></defs>
    <g id="Symbols" stroke="none" stroke-width="1" fill="none" fill-rule="evenodd">
        <g id="Logo">
            <g id="Group" transform="translate(0.000000, -1.000000)">
                <polygon id="Polygon" fill="#4990E2" points="61.9208164 1 123.841633 36.75 123.841633 108.25 61.9208164 144 2.30926389e-14 108.25 -1.77635684e-14 36.75"></polygon>
                <polygon id="Polygon-2" fill-opacity="0.498726223" fill="#FFFFFF" points="61.9645996 0.892578125 123.880371 36.5995982 62.1547852 72.6207275 0.048828125 36.5995982"></polygon>
                <polygon id="Polygon-2-Copy-2" fill="#4990E2" points="61.9645996 8.44628906 110.839638 36.6326771 62.1147282 65.0670166 13.0895616 36.6326771"></polygon>
                <polygon id="Polygon-2-Copy-3" fill-opacity="0.498726223" fill="#000000" points="61.9645996 8.44628906 62.1147282 65.0670166 13.0895616 36.6326771"></polygon>
                <polygon id="Polygon-2-Copy" fill-opacity="0.498726223" fill="#000000" transform="translate(93.006447, 90.465815) rotate(-60.000000) translate(-93.006447, -90.465815) " points="93.0064475 54.7841853 154.927264 90.4658147 93.0064475 126.147444 31.0856311 90.4658147"></polygon>
            </g>
            <path d="M107.785958,106.264286 L107.785958,70.9391008 C107.785958,70.3262495 107.67105,69.8119008 107.441231,69.3960393 C107.211412,68.9801777 106.888575,68.6831395 106.472712,68.5049156 C106.056848,68.3266917 105.57533,68.2790127 105.028141,68.361877 C104.480952,68.4447413 103.900941,68.661273 103.28809,69.0114786 C102.675239,69.3616841 102.100699,69.8049048 101.564454,70.3411539 C101.028209,70.877403 100.557634,71.4691433 100.152715,72.1163925 C99.747795,72.7636417 99.4304304,73.4265142 99.2006112,74.1050299 C98.9707919,74.7835456 98.855884,75.4292194 98.855884,76.0420707 L98.855884,111.367255 L89.892979,116.488986 L89.892979,81.1638015 C89.892979,80.5509502 89.7780711,80.0366016 89.5482519,79.62074 C89.3184326,79.2048785 88.9955962,78.9078402 88.5797328,78.7296163 C88.1638695,78.5513925 87.6823507,78.5037134 87.135162,78.5865777 C86.5879734,78.669442 86.0079621,78.8859737 85.3951109,79.2361793 C84.7822596,79.5863848 84.2077201,80.0296055 83.6714753,80.5658546 C83.1352304,81.1021037 82.6646552,81.693844 82.2597357,82.3410932 C81.8548161,82.9883424 81.5374514,83.6512149 81.3076322,84.3297306 C81.077813,85.0082463 80.9629051,85.6539201 80.9629051,86.2667714 L80.9629051,121.591956 L72,126.713687 L72,78.551521 L74.1668562,77.3133003 L76.5963616,78.617147 C77.8439517,76.8536263 79.2173745,75.2535036 80.7166714,73.8167307 C82.2159683,72.3799579 83.7754325,71.1988175 85.3951109,70.2732742 C87.0366768,69.3352236 88.6399154,68.7254956 90.2048749,68.4440719 C91.7698344,68.1626483 93.1432573,68.4393544 94.3251848,69.2741986 C94.8723734,68.2173385 95.4961591,67.2261553 96.1965606,66.3006193 C96.896962,65.3750832 97.6356556,64.5261661 98.4126635,63.7538422 C99.1896713,62.9815184 99.9940266,62.2865929 100.825753,61.6690449 C101.65748,61.0514969 102.478251,60.5113451 103.28809,60.0485735 C105.148531,58.9854495 106.894037,58.3381994 108.524659,58.1068039 C110.155281,57.8754084 111.57795,58.0200091 112.792709,58.5406104 C114.007468,59.0612117 114.965033,59.9421647 115.665435,61.1834957 C116.365836,62.4248266 116.716032,63.9756895 116.716032,65.8361309 L116.716032,101.161316 L107.785958,106.264286 Z" id="m" fill="#4990E2"></path>
            <path d="M43.785958,86.408632 C43.785958,85.7957808 43.6710501,85.1497144 43.4412308,84.4704136 C43.2114116,83.7911128 42.8885752,83.1240106 42.4727118,82.4690871 C42.0568484,81.8141636 41.5753297,81.2145248 41.028141,80.6701528 C40.4809524,80.1257808 39.9009411,79.6774519 39.2880899,79.3251528 C38.6752386,78.9728536 38.1006991,78.757486 37.5644543,78.6790435 C37.0282094,78.600601 36.5576342,78.6529261 36.1527146,78.8360204 C35.747795,79.0191146 35.4304304,79.3181955 35.2006112,79.733272 C34.9707919,80.1483484 34.855884,80.6623046 34.855884,81.2751559 L34.855884,116.600341 L25.892979,111.447991 L25.892979,76.1228066 C25.892979,75.5099554 25.7780711,74.863889 25.5482519,74.1845882 C25.3184326,73.5052874 24.9955962,72.8381852 24.5797328,72.1832617 C24.1638695,71.5283382 23.6823507,70.9286995 23.135162,70.3843274 C22.5879734,69.8399554 22.0079621,69.3916265 21.3951109,69.0393274 C20.7822596,68.6870282 20.2077201,68.4716606 19.6714753,68.3932181 C19.1352304,68.3147756 18.6646552,68.3671007 18.2597357,68.550195 C17.8548161,68.7332892 17.5374514,69.0323701 17.3076322,69.4474466 C17.077813,69.8625231 16.9629051,70.3764792 16.9629051,70.9893305 L16.9629051,106.314515 L8,101.162166 L8,53 L10.1668562,54.2456229 L12.5963616,58.334385 C13.8439517,58.0009632 15.2173745,57.9751801 16.7166714,58.2570348 C18.2159683,58.5388896 19.7754325,59.145346 21.3951109,60.0764223 C23.0366768,61.0200807 24.6399154,62.2481277 26.2048749,63.7606 C27.7698344,65.2730723 29.1432573,67.124118 30.3251848,69.3137927 C30.8723734,68.884169 31.4961591,68.6080245 32.1965606,68.485351 C32.896962,68.3626775 33.6356556,68.3605167 34.4126635,68.4788685 C35.1896713,68.5972203 35.9940266,68.8243184 36.8257533,69.1601696 C37.65748,69.4960209 38.4782507,69.8967095 39.2880899,70.3622477 C41.1485312,71.4317272 42.8940368,72.7853311 44.5246589,74.4230999 C46.1552811,76.0608688 47.5779502,77.8362596 48.792709,79.7493256 C50.0074677,81.6623916 50.9650335,83.6409917 51.6654349,85.6851852 C52.3658364,87.7293787 52.7160319,89.6816668 52.7160319,91.5421082 L52.7160319,126.867293 L43.785958,121.733817 L43.785958,86.408632 Z" id="m-copy" fill="#FFFFFF"></path>
        </g>
    </g>
</svg>